<svg width="24" height="24" viewBox="0 0 24 24" fill="none" xmlns="http://www.w3.org/2000/svg">
<circle cx="12" cy="12" r="11.5" stroke="#878787"/>
<path d="M18.5107 5.48975C18.5107 5.2136 18.2869 4.98975 18.0107 4.98975L13.5107 4.98975C13.2346 4.98975 13.0107 5.2136 13.0107 5.48975C13.0107 5.76589 13.2346 5.98975 13.5107 5.98975L17.5107 5.98975L17.5107 9.98975C17.5107 10.2659 17.7346 10.4897 18.0107 10.4897C18.2869 10.4897 18.5107 10.2659 18.5107 9.98975L18.5107 5.48975ZM5.48993 17.5106C5.48993 17.7867 5.71379 18.0106 5.98993 18.0106L10.4899 18.0106C10.7661 18.0106 10.9899 17.7867 10.9899 17.5106C10.9899 17.2344 10.7661 17.0106 10.4899 17.0106L6.48993 17.0106L6.48993 13.0106C6.48993 12.7344 6.26607 12.5106 5.98993 12.5106C5.71378 12.5106 5.48993 12.7344 5.48993 13.0106L5.48993 17.5106ZM17.6572 5.13619L5.63637 17.157L6.34348 17.8641L18.3643 5.8433L17.6572 5.13619Z" fill="#6EB44A"/>
</svg>
