<svg width="25" height="24" viewBox="0 0 25 24" fill="none" xmlns="http://www.w3.org/2000/svg">
<line x1="24.5" y1="2.18557e-08" x2="24.5" y2="24" stroke="#878787"/>
<line x1="0.5" y1="2.18557e-08" x2="0.499999" y2="24" stroke="#878787"/>
<path d="M21.3536 12.3536C21.5488 12.1583 21.5488 11.8417 21.3536 11.6464L18.1716 8.46447C17.9763 8.2692 17.6597 8.2692 17.4645 8.46447C17.2692 8.65973 17.2692 8.97631 17.4645 9.17157L20.2929 12L17.4645 14.8284C17.2692 15.0237 17.2692 15.3403 17.4645 15.5355C17.6597 15.7308 17.9763 15.7308 18.1716 15.5355L21.3536 12.3536ZM3.64645 11.6464C3.45119 11.8417 3.45119 12.1583 3.64645 12.3536L6.82843 15.5355C7.02369 15.7308 7.34027 15.7308 7.53553 15.5355C7.7308 15.3403 7.7308 15.0237 7.53553 14.8284L4.70711 12L7.53553 9.17157C7.7308 8.97631 7.7308 8.65973 7.53553 8.46447C7.34027 8.2692 7.02369 8.2692 6.82843 8.46447L3.64645 11.6464ZM21 11.5L4 11.5V12.5L21 12.5V11.5Z" fill="#6EB44A"/>
</svg>
