<svg width="24" height="25" viewBox="0 0 24 25" fill="none" xmlns="http://www.w3.org/2000/svg">
<line y1="0.5" x2="24" y2="0.5" stroke="#878787"/>
<line y1="24.5" x2="24" y2="24.5" stroke="#878787"/>
<path d="M12.3536 3.64645C12.1583 3.45118 11.8417 3.45118 11.6464 3.64645L8.46447 6.82843C8.2692 7.02369 8.2692 7.34027 8.46447 7.53553C8.65973 7.7308 8.97631 7.7308 9.17157 7.53553L12 4.70711L14.8284 7.53553C15.0237 7.7308 15.3403 7.7308 15.5355 7.53553C15.7308 7.34027 15.7308 7.02369 15.5355 6.82843L12.3536 3.64645ZM11.6464 21.3536C11.8417 21.5488 12.1583 21.5488 12.3536 21.3536L15.5355 18.1716C15.7308 17.9763 15.7308 17.6597 15.5355 17.4645C15.3403 17.2692 15.0237 17.2692 14.8284 17.4645L12 20.2929L9.17157 17.4645C8.97631 17.2692 8.65973 17.2692 8.46447 17.4645C8.2692 17.6597 8.2692 17.9763 8.46447 18.1716L11.6464 21.3536ZM11.5 4L11.5 21L12.5 21L12.5 4L11.5 4Z" fill="#6EB44A"/>
</svg>
