<svg width="25" height="24" viewBox="0 0 25 24" fill="none" xmlns="http://www.w3.org/2000/svg">
<line x1="24.5" y1="2.18557e-08" x2="24.5" y2="24" stroke="#878787"/>
<line x1="0.5" y1="2.18557e-08" x2="0.499999" y2="24" stroke="#878787"/>
<line x1="24" y1="23.5005" x2="-4.37114e-08" y2="23.5005" stroke="#878787"/>
<line x1="23.9995" y1="0.500488" x2="-0.000488325" y2="0.500486" stroke="#878787"/>
<path d="M19.0103 5.98975C19.0103 5.7136 18.7864 5.48975 18.5103 5.48975L14.0103 5.48975C13.7341 5.48975 13.5103 5.7136 13.5103 5.98975C13.5103 6.26589 13.7341 6.48975 14.0103 6.48975L18.0103 6.48975L18.0103 10.4897C18.0103 10.7659 18.2341 10.9897 18.5103 10.9897C18.7864 10.9897 19.0103 10.7659 19.0103 10.4897L19.0103 5.98975ZM5.98944 18.0106C5.98944 18.2867 6.21329 18.5106 6.48944 18.5106L10.9894 18.5106C11.2656 18.5106 11.4894 18.2867 11.4894 18.0106C11.4894 17.7344 11.2656 17.5106 10.9894 17.5106L6.98944 17.5106L6.98944 13.5106C6.98944 13.2344 6.76558 13.0106 6.48944 13.0106C6.2133 13.0106 5.98944 13.2344 5.98944 13.5106L5.98944 18.0106ZM18.1567 5.63619L6.13588 17.657L6.84299 18.3641L18.8638 6.3433L18.1567 5.63619Z" fill="#6EB44A"/>
</svg>
